<svg width="40" height="39" viewBox="0 0 40 39" fill="none" xmlns="http://www.w3.org/2000/svg">
<path fill-rule="evenodd" clip-rule="evenodd" d="M8.82031 0.499756V4.6277H24.375V0.499756H26.875V4.6277H31.9438V4.7541H33.1934V22.9086H30.6934V14.7467H2.5V36.0002H16.1445V38.5002H0.115234V38.1468H0V4.75748H1.25V4.6277H6.32031V0.499756H8.82031ZM2.5 12.2467H30.6934V7.1277H2.5V12.2467ZM9.97796 21.8592L13.079 24.4251L14.6727 22.499L11.9388 20.2368L14.6727 17.9747L13.079 16.0486L9.97796 18.6144L6.87694 16.0486L5.28321 17.9747L8.01716 20.2368L5.28321 22.499L6.87694 24.4251L9.97796 21.8592ZM27.3556 36.8412L39.9942 25.6368L38.3357 23.7661L26.5748 34.1924L21.0878 28.7443L19.3263 30.5184L25.6456 36.7929L26.4779 37.6193L27.3556 36.8412Z" fill="#263564"/>
</svg>
