<svg width="32" height="33" viewBox="0 0 32 33" fill="none" xmlns="http://www.w3.org/2000/svg">
<path d="M24.3333 24.8333C23.4493 24.8333 22.6014 25.1845 21.9763 25.8096C21.3512 26.4348 21 27.2826 21 28.1667C21 29.0507 21.3512 29.8986 21.9763 30.5237C22.6014 31.1488 23.4493 31.5 24.3333 31.5C25.2174 31.5 26.0652 31.1488 26.6904 30.5237C27.3155 29.8986 27.6667 29.0507 27.6667 28.1667C27.6667 27.2826 27.3155 26.4348 26.6904 25.8096C26.0652 25.1845 25.2174 24.8333 24.3333 24.8333ZM24.3333 24.8333H11.49C10.7217 24.8333 10.3367 24.8333 10.02 24.6967C9.74101 24.5763 9.50014 24.3821 9.32333 24.135C9.12333 23.8567 9.045 23.485 8.88833 22.7517L4.78333 3.60833C4.62333 2.85667 4.54167 2.48 4.34167 2.2C4.16457 1.95209 3.9231 1.7573 3.64333 1.63667C3.32833 1.5 2.945 1.5 2.17833 1.5H1M6 6.5H27.455C28.6583 6.5 29.2583 6.5 29.6633 6.75C30.0171 6.96979 30.2757 7.31405 30.3883 7.715C30.5167 8.17167 30.3517 8.75 30.0183 9.905L27.71 17.905C27.51 18.5967 27.41 18.9417 27.21 19.1983C27.0308 19.4249 26.7959 19.6011 26.5283 19.71C26.2283 19.8333 25.8683 19.8333 25.1533 19.8333H8.88333M9.33333 31.5C8.44928 31.5 7.60143 31.1488 6.97631 30.5237C6.35119 29.8986 6 29.0507 6 28.1667C6 27.2826 6.35119 26.4348 6.97631 25.8096C7.60143 25.1845 8.44928 24.8333 9.33333 24.8333C10.2174 24.8333 11.0652 25.1845 11.6904 25.8096C12.3155 26.4348 12.6667 27.2826 12.6667 28.1667C12.6667 29.0507 12.3155 29.8986 11.6904 30.5237C11.0652 31.1488 10.2174 31.5 9.33333 31.5Z" stroke="#263564" stroke-width="2" stroke-linecap="round" stroke-linejoin="round"/>
</svg>
