<svg width="1920" height="115" viewBox="0 0 1920 115" fill="none" xmlns="http://www.w3.org/2000/svg">
<path d="M1354.5 28.5L1377 10L1167 19L1003.5 32L800 57H1082L1354.5 28.5Z" fill="#0278A5" stroke="#0278A5"/>
<path d="M519.5 102L508 94V90.5L604.5 79.5L709 64.5L946 59L919.5 75.5L682 94L519.5 102Z" fill="#022293" stroke="#022293"/>
<path d="M438 109C421.833 111 379.6 115.8 340 111V109.5L394.5 102L438 105.5V109Z" fill="#072489" stroke="#00248F"/>
<path d="M-1 93.5V74.5V68L92 98.5H83L-1 93.5Z" fill="#04228F" stroke="#032287"/>
<path d="M1865 57L1845 36C1873 36 1870.5 37.9998 1919.5 45.5V63L1865 57Z" fill="#05CFF3" stroke="#05CFF3"/>
<path d="M-1 52.5V34.5L123 53L211 60.5L305 67L387.5 70H448.5H537L549.5 71.5L544.5 72.5L427 77.5L302.5 82L173 79L110.5 74.5L63.5 68.5L-1 52.5Z" fill="#04228F" stroke="#04228F"/>
<path d="M1919.5 63.5V70H1909.5L1903.5 61L1919.5 63.5Z" fill="#035E79" stroke="#0CA8C1"/>
<path fill-rule="evenodd" clip-rule="evenodd" d="M1920 45.1231C1877.84 33.3664 1853.39 31.5421 1831.55 29.9124C1823.05 29.2777 1814.94 28.6726 1806.33 27.522L1805.67 32.4779C1814.62 33.6744 1822.9 34.2921 1831.51 34.9338C1853.47 36.5705 1877.52 38.3634 1920 50.3155V45.1231Z" fill="#0083A9"/>
<path d="M255 89L391.5 107C346.5 118 99.5 122 -1 72V42C18 55 79.5 78.5 255 89Z" fill="#029FDC" stroke="#029FDC"/>
<path d="M994 67L849 86L967 82L1114.5 70L1280 55.5L1482.5 42L1642 35.5L1597.5 30.5L1496.5 22L1203 42.5L994 67Z" fill="white" stroke="white"/>
<path d="M1642.5 33C1714.5 26 1827 44.5 1907 90.5001C1887 83.5 1830.6 67.9 1765 61.5C1685.83 53.2875 1452 51.4905 1182 78.0003C1095.33 88.5003 864.5 103.5 583 103.5C665 92.5 870.5 62.5 1045.5 62.5C1158.5 56.5 1401.5 33 1642.5 33Z" fill="#022293" stroke="#002493"/>
<path d="M1789.5 45.0001C1705.5 20.9997 1504.83 20.0004 1466.5 26.0004C1596.5 30.5003 1744 37.6667 1789.5 45.0001Z" fill="#0083A9" stroke="#0083A9"/>
<path d="M513.5 71L297 59.5C632 47.5 629.5 41.5 1088.5 25C1033.17 28.5 887 40.3 745 59.5H732L513.5 71Z" fill="#0182AF" stroke="#0182AF"/>
<path d="M-1 24V40.5C80.8333 54 448 96.5 758.5 60C690.5 60 409 64.8 -1 24Z" fill="white" stroke="white"/>
<path d="M1261.5 6.49997C1163.5 10.5 907.9 27.7 669.5 64.5C698.667 61.3333 794 55 952.5 41.5C1061.33 29.8333 1316.5 6.5 1442.5 16.5L1487 13.5C1471.17 7.99997 1403.9 -1.10003 1261.5 6.49997Z" fill="#039CDD" stroke="#029EDE"/>
<path d="M1000.5 60L917 65.5L686.5 74.4034C757.5 60.5 957.2 42 1170 38L1000.5 60Z" fill="white"/>
<path d="M684 74.5L686.5 74.4034M686.5 74.4034L917 65.5L1000.5 60L1170 38C957.2 42 757.5 60.5 686.5 74.4034Z" stroke="white"/>
<path d="M661 77.5C600.5 85 537.5 113.999 262 87.5C277 87.5 377 87.5 526.5 79.4993C700 69.9985 794 51 926.5 50C895.5 54.5 798.5 64.9992 661 77.5Z" fill="#009DDB" stroke="#0494C9"/>
<path d="M-1 58.2593V65.2593C24.8333 73.0926 144.5 98.7592 374 86.7592C467.872 81.8509 668.5 74.2593 984 46.2593L1204 38.2593L1553 25C1469.33 19.3333 1232 22.7592 928.5 46.2592C785.5 52.2593 701.9 67.8593 385.5 78.2593C326.5 79.7593 165 87.2593 -1 58.2593Z" fill="#02D0F3" stroke="#01CFEF"/>
<path fill-rule="evenodd" clip-rule="evenodd" d="M283.464 90.1786C364.721 97.3748 442.209 97.9404 478.654 97.035C688.673 95.0282 953.552 63.0878 1059.74 47.3685C1368.31 3.62183 1587.48 -1.29465 1658.5 1.71544C1800.86 11.7492 1880.63 45.3618 1919 69.4426V105.564C1871.04 41.888 1635.78 19.9834 1572.17 24.7929C1403.65 24.7929 1178.15 49.2952 1010.87 67.4702C942.413 74.9089 883.706 81.2877 842.653 84.493C549.039 116.912 365.765 115.356 267.51 90.449L283.464 90.1786Z" fill="#EB1A23"/>
<path d="M478.654 97.035L478.649 96.5349L478.641 96.5351L478.654 97.035ZM283.464 90.1786L283.508 89.6805L283.482 89.6782L283.456 89.6786L283.464 90.1786ZM1059.74 47.3685L1059.67 46.8734L1059.67 46.8739L1059.74 47.3685ZM1658.5 1.71544L1658.53 1.21648L1658.52 1.21589L1658.5 1.71544ZM1919 69.4426H1919.5V69.1661L1919.27 69.0191L1919 69.4426ZM1919 105.564L1918.6 105.864L1919.5 107.059V105.564H1919ZM1572.17 24.7929V25.2929H1572.18L1572.2 25.2915L1572.17 24.7929ZM1010.87 67.4702L1010.82 66.9731L1010.87 67.4702ZM842.653 84.493L842.614 83.9945L842.606 83.9952L842.598 83.996L842.653 84.493ZM267.51 90.449L267.501 89.9491L267.387 90.9337L267.51 90.449ZM478.641 96.5351C442.213 97.4401 364.743 96.8748 283.508 89.6805L283.42 90.6766C364.698 97.8748 442.206 98.4406 478.666 97.5348L478.641 96.5351ZM1059.67 46.8739C953.488 62.5919 688.634 94.5286 478.649 96.535L478.659 97.535C688.711 95.5279 953.616 63.5838 1059.81 47.8631L1059.67 46.8739ZM1658.52 1.21589C1587.46 -1.79583 1368.26 3.12375 1059.67 46.8734L1059.81 47.8635C1368.35 4.11991 1587.5 -0.793478 1658.47 2.21499L1658.52 1.21589ZM1919.27 69.0191C1880.81 44.8857 1800.96 11.2549 1658.53 1.21667L1658.46 2.2142C1800.77 12.2435 1880.45 45.838 1918.73 69.8661L1919.27 69.0191ZM1919.5 105.564V69.4426H1918.5V105.564H1919.5ZM1572.2 25.2915C1603.95 22.891 1678.63 27.1584 1751.36 39.9887C1787.73 46.4032 1823.59 54.9543 1853.35 65.8731C1883.12 76.8002 1906.7 90.0679 1918.6 105.864L1919.4 105.263C1907.32 89.2216 1883.5 75.8728 1853.69 64.9343C1823.86 53.9876 1787.93 45.4239 1751.54 39.0039C1678.75 26.1655 1603.99 21.8853 1572.13 24.2943L1572.2 25.2915ZM1010.93 67.9673C1178.21 49.7913 1403.68 25.2929 1572.17 25.2929V24.2929C1403.62 24.2929 1178.08 48.799 1010.82 66.9731L1010.93 67.9673ZM842.692 84.9915C883.754 81.7854 942.47 75.4056 1010.93 67.9673L1010.82 66.9731C942.355 74.4122 883.658 80.7899 842.614 83.9945L842.692 84.9915ZM267.387 90.9337C365.739 115.865 549.095 117.409 842.708 84.99L842.598 83.996C548.983 116.415 365.791 114.847 267.633 89.9643L267.387 90.9337ZM283.456 89.6786L267.501 89.9491L267.518 90.9489L283.473 90.6785L283.456 89.6786Z" fill="#EB1B25"/>
</svg>
