<svg width="40" height="40" viewBox="0 0 40 40" fill="none" xmlns="http://www.w3.org/2000/svg">
<path d="M5.83256 13.3333C5.83289 11.7532 6.24168 10.2 7.01926 8.82439C7.79684 7.44881 8.9168 6.29759 10.2705 5.48244C11.6241 4.6673 13.1655 4.21592 14.745 4.1721C16.3246 4.12829 17.8886 4.49352 19.2854 5.23237C20.6822 5.97121 21.8642 7.05857 22.7169 8.38893C23.5695 9.71929 24.0638 11.2475 24.1517 12.8252C24.2396 14.4029 23.9182 15.9765 23.2187 17.3934C22.5192 18.8102 21.4652 20.0222 20.1592 20.9117C22.9717 21.9432 25.4112 23.7929 27.1636 26.2225C28.9161 28.6522 29.9013 31.5507 29.9926 34.545C29.9887 34.8678 29.8602 35.1767 29.634 35.407C29.4077 35.6374 29.1012 35.7714 28.7785 35.7811C28.4558 35.7907 28.1418 35.6754 27.9022 35.459C27.6625 35.2426 27.5158 34.942 27.4926 34.62C27.3933 31.3724 26.0335 28.2911 23.7012 26.029C21.3689 23.7669 18.2475 22.5018 14.9984 22.5018C11.7493 22.5018 8.62789 23.7669 6.29561 26.029C3.96333 28.2911 2.60348 31.3724 2.50423 34.62C2.48754 34.9464 2.34369 35.2533 2.10349 35.4749C1.8633 35.6965 1.54586 35.8152 1.21918 35.8056C0.89251 35.7961 0.582582 35.6589 0.355797 35.4236C0.129013 35.1883 0.00340954 34.8735 0.00589559 34.5467C0.0968145 31.5521 1.08191 28.6532 2.83437 26.2232C4.58684 23.7932 7.02647 21.9433 9.83923 20.9117C8.60395 20.0711 7.59305 18.941 6.89468 17.6201C6.19631 16.2992 5.83168 14.8275 5.83256 13.3333ZM14.9992 6.66667C13.2311 6.66667 11.5354 7.36905 10.2852 8.61929C9.03494 9.86953 8.33256 11.5652 8.33256 13.3333C8.33256 15.1014 9.03494 16.7971 10.2852 18.0474C11.5354 19.2976 13.2311 20 14.9992 20C16.7673 20 18.463 19.2976 19.7133 18.0474C20.9635 16.7971 21.6659 15.1014 21.6659 13.3333C21.6659 11.5652 20.9635 9.86953 19.7133 8.61929C18.463 7.36905 16.7673 6.66667 14.9992 6.66667ZM28.8159 13.3333C28.5692 13.3333 28.3292 13.35 28.0926 13.3833C27.9273 13.4129 27.7578 13.4089 27.5942 13.3716C27.4305 13.3342 27.276 13.2643 27.14 13.166C27.004 13.0676 26.8891 12.9429 26.8023 12.7992C26.7155 12.6556 26.6585 12.4959 26.6348 12.3297C26.6111 12.1635 26.621 11.9942 26.6641 11.832C26.7072 11.6698 26.7826 11.5179 26.8856 11.3854C26.9887 11.2529 27.1174 11.1425 27.2641 11.0608C27.4107 10.9792 27.5723 10.9279 27.7392 10.91C29.3969 10.6703 31.0871 10.9887 32.544 11.8149C34.0009 12.6411 35.1417 13.9283 35.7869 15.4739C36.4321 17.0195 36.545 18.7357 36.108 20.3526C35.6709 21.9694 34.7086 23.395 33.3726 24.405C35.3365 25.2844 37.0041 26.7133 38.174 28.5194C39.3439 30.3254 39.9663 32.4315 39.9659 34.5833C39.9659 34.9149 39.8342 35.2328 39.5998 35.4672C39.3654 35.7016 39.0474 35.8333 38.7159 35.8333C38.3844 35.8333 38.0664 35.7016 37.832 35.4672C37.5976 35.2328 37.4659 34.9149 37.4659 34.5833C37.4657 32.7236 36.8665 30.9133 35.757 29.4208C34.6475 27.9283 33.0867 26.8328 31.3059 26.2967L30.4159 26.03V23.2367L31.0992 22.8883C32.1122 22.3752 32.9226 21.5358 33.3997 20.5054C33.8769 19.4751 33.9929 18.314 33.7289 17.2096C33.465 16.1052 32.8366 15.122 31.9452 14.4187C31.0538 13.7154 29.9514 13.333 28.8159 13.3333Z" fill="#263564"/>
</svg>
