<svg width="18" height="18" viewBox="0 0 18 18" fill="none" xmlns="http://www.w3.org/2000/svg">
<circle cx="9" cy="9" r="8.3" stroke="#93B6E1" stroke-width="1.4"/>
<path d="M6 4.16C6.176 4 6.368 3.85067 6.576 3.712C6.784 3.57333 7.008 3.45067 7.248 3.344C7.49333 3.23733 7.75733 3.15467 8.04 3.096C8.328 3.032 8.63733 3 8.968 3C9.41067 3 9.816 3.064 10.184 3.192C10.5573 3.31467 10.8773 3.49333 11.144 3.728C11.416 3.95733 11.6267 4.23733 11.776 4.568C11.9253 4.89333 12 5.25867 12 5.664C12 6.06933 11.9413 6.42133 11.824 6.72C11.7067 7.01333 11.5573 7.26933 11.376 7.488C11.1947 7.70667 10.9973 7.89867 10.784 8.064C10.5707 8.224 10.368 8.376 10.176 8.52C9.98933 8.65867 9.82667 8.8 9.688 8.944C9.55467 9.08267 9.47467 9.23733 9.448 9.408L9.28 10.608H8.112L7.992 9.288C7.96533 9.03733 8.00533 8.82133 8.112 8.64C8.21867 8.45867 8.36 8.288 8.536 8.128C8.71733 7.968 8.91467 7.816 9.128 7.672C9.34667 7.52267 9.54933 7.35733 9.736 7.176C9.92267 6.99467 10.08 6.792 10.208 6.568C10.336 6.344 10.4 6.07467 10.4 5.76C10.4 5.552 10.36 5.36533 10.28 5.2C10.2 5.02933 10.088 4.88533 9.944 4.768C9.8 4.65067 9.632 4.56 9.44 4.496C9.248 4.432 9.04 4.4 8.816 4.4C8.50133 4.4 8.23467 4.43733 8.016 4.512C7.79733 4.58667 7.61067 4.66933 7.456 4.76C7.30133 4.84533 7.17333 4.92533 7.072 5C6.97067 5.06933 6.88533 5.104 6.816 5.104C6.65067 5.104 6.528 5.032 6.448 4.888L6 4.16ZM7.536 13.656C7.536 13.5013 7.56267 13.3573 7.616 13.224C7.67467 13.0853 7.752 12.9653 7.848 12.864C7.94933 12.7627 8.06667 12.6827 8.2 12.624C8.33867 12.5653 8.48533 12.536 8.64 12.536C8.79467 12.536 8.93867 12.5653 9.072 12.624C9.21067 12.6827 9.33067 12.7627 9.432 12.864C9.53333 12.9653 9.61333 13.0853 9.672 13.224C9.73067 13.3573 9.76 13.5013 9.76 13.656C9.76 13.816 9.73067 13.9627 9.672 14.096C9.61333 14.2293 9.53333 14.3467 9.432 14.448C9.33067 14.5493 9.21067 14.6267 9.072 14.68C8.93867 14.7387 8.79467 14.768 8.64 14.768C8.48533 14.768 8.33867 14.7387 8.2 14.68C8.06667 14.6267 7.94933 14.5493 7.848 14.448C7.752 14.3467 7.67467 14.2293 7.616 14.096C7.56267 13.9627 7.536 13.816 7.536 13.656Z" fill="#93B6E1"/>
</svg>
