<svg width="194" height="30" viewBox="0 0 194 30" fill="none" xmlns="http://www.w3.org/2000/svg">
<path d="M15 21.5875L22.725 26.25L20.675 17.4625L27.5 11.55L18.5125 10.7875L15 2.5L11.4875 10.7875L2.5 11.55L9.325 17.4625L7.275 26.25L15 21.5875Z" fill="black"/>
<path d="M56 21.5875L63.725 26.25L61.675 17.4625L68.5 11.55L59.5125 10.7875L56 2.5L52.4875 10.7875L43.5 11.55L50.325 17.4625L48.275 26.25L56 21.5875Z" fill="black"/>
<path d="M97 21.5875L104.725 26.25L102.675 17.4625L109.5 11.55L100.513 10.7875L97 2.5L93.4875 10.7875L84.5 11.55L91.325 17.4625L89.275 26.25L97 21.5875Z" fill="black"/>
<path d="M138 21.5875L145.725 26.25L143.675 17.4625L150.5 11.55L141.513 10.7875L138 2.5L134.487 10.7875L125.5 11.55L132.325 17.4625L130.275 26.25L138 21.5875Z" fill="black"/>
<path d="M179 21.5875L186.725 26.25L184.675 17.4625L191.5 11.55L182.513 10.7875L179 2.5L175.487 10.7875L166.5 11.55L173.325 17.4625L171.275 26.25L179 21.5875Z" fill="black"/>
</svg>
