<svg width="262" height="50" viewBox="0 0 262 50" fill="none" xmlns="http://www.w3.org/2000/svg">
<path d="M24.9994 35.979L37.8744 43.7498L34.4577 29.104L45.8327 19.2498L30.8535 17.979L24.9994 4.1665L19.1452 17.979L4.16602 19.2498L15.541 29.104L12.1244 43.7498L24.9994 35.979Z" fill="#FFC700"/>
<path d="M77.9994 35.979L90.8744 43.7498L87.4577 29.104L98.8327 19.2498L83.8535 17.979L77.9994 4.1665L72.1452 17.979L57.166 19.2498L68.541 29.104L65.1244 43.7498L77.9994 35.979Z" fill="#FFC700"/>
<path d="M130.999 35.979L143.874 43.7498L140.458 29.104L151.833 19.2498L136.854 17.979L130.999 4.1665L125.145 17.979L110.166 19.2498L121.541 29.104L118.124 43.7498L130.999 35.979Z" fill="#FFC700"/>
<path d="M183.999 35.979L196.874 43.7498L193.458 29.104L204.833 19.2498L189.854 17.979L183.999 4.1665L178.145 17.979L163.166 19.2498L174.541 29.104L171.124 43.7498L183.999 35.979Z" fill="#FFC700"/>
<path d="M236.999 35.979L249.874 43.7498L246.458 29.104L257.833 19.2498L242.854 17.979L236.999 4.1665L231.145 17.979L216.166 19.2498L227.541 29.104L224.124 43.7498L236.999 35.979Z" fill="#FFC700"/>
</svg>
