<svg width="40" height="41" viewBox="0 0 40 41" fill="none" xmlns="http://www.w3.org/2000/svg">
<path d="M20 37.9998C10.35 37.9998 2.5 30.1498 2.5 20.4998C2.5 10.8498 10.35 2.99976 20 2.99976C29.65 2.99976 37.5 10.8498 37.5 20.4998C37.5 30.1498 29.65 37.9998 20 37.9998ZM20 5.49976C11.725 5.49976 5 12.2248 5 20.4998C5 28.7748 11.725 35.4998 20 35.4998C28.275 35.4998 35 28.7748 35 20.4998C35 12.2248 28.275 5.49976 20 5.49976Z" fill="#263564"/>
<path d="M25 26.7498C24.775 26.7498 24.55 26.6998 24.35 26.5748L18.1 22.8248C17.9149 22.7135 17.7621 22.5558 17.6568 22.3672C17.5516 22.1786 17.4975 21.9657 17.5 21.7498V11.7498C17.5 11.0498 18.05 10.4998 18.75 10.4998C19.45 10.4998 20 11.0498 20 11.7498V21.0498L25.65 24.4248C25.8827 24.5674 26.0626 24.782 26.1623 25.0361C26.2621 25.2901 26.2763 25.5698 26.2028 25.8327C26.1293 26.0955 25.9721 26.3273 25.7551 26.4928C25.538 26.6583 25.2729 26.7485 25 26.7498Z" fill="#263564"/>
</svg>
